<svg id="visual" viewBox="0 0 900 600" width="900" height="600" xmlns="http://www.w3.org/2000/svg" xmlns:xlink="http://www.w3.org/1999/xlink" version="1.1"><path d="M0 342L30 324.8C60 307.7 120 273.3 180 287.2C240 301 300 363 360 380.7C420 398.3 480 371.7 540 352C600 332.3 660 319.7 720 306.3C780 293 840 279 870 272L900 265L900 601L870 601C840 601 780 601 720 601C660 601 600 601 540 601C480 601 420 601 360 601C300 601 240 601 180 601C120 601 60 601 30 601L0 601Z" fill="#0655cf" stroke-linecap="round" stroke-linejoin="miter"></path></svg>