<svg id="visual" viewBox="0 0 900 600" width="900" height="600" xmlns="http://www.w3.org/2000/svg" xmlns:xlink="http://www.w3.org/1999/xlink" version="1.1"><path d="M568 600L543 580C518 560 468 520 441 480C414 440 410 400 426.3 360C442.7 320 479.3 280 476.2 240C473 200 430 160 398.3 120C366.7 80 346.3 40 336.2 20L326 0L900 0L900 20C900 40 900 80 900 120C900 160 900 200 900 240C900 280 900 320 900 360C900 400 900 440 900 480C900 520 900 560 900 580L900 600Z" fill="#6da6f3" stroke-linecap="round" stroke-linejoin="miter"></path></svg>